<!-- Created with Inkscape (http://www.inkscape.org/) -->
<svg xmlns:rdf="http://www.w3.org/1999/02/22-rdf-syntax-ns#" xmlns="http://www.w3.org/2000/svg" version="1.1" xmlns:cc="http://creativecommons.org/ns#" xmlns:dc="http://purl.org/dc/elements/1.1/" viewBox="0 0 522 140">
<metadata>
<rdf:RDF>
<cc:Work rdf:about="">
<dc:format>image/svg+xml</dc:format>
<dc:type rdf:resource="http://purl.org/dc/dcmitype/StillImage"/>
<dc:title/>
</cc:Work>
</rdf:RDF>
</metadata>
<g fill="#1450d2" transform="translate(-111.26273,-455.98109)">
<text style="letter-spacing:0px;word-spacing:0px;" font-weight="bold" xml:space="preserve" font-size="64px" font-stretch="normal" line-height="125%" font-variant="normal" y="543.32397" x="105.38773" font-family="Sans" font-style="normal"><tspan x="105.38773" y="543.32397">PedalPulse</tspan></text>
<path d="m581,479c0,17.9-4.37,41.6-9.75,41.6s-9.75-23.7-9.75-41.6,4.37-23.4,9.75-23.4,9.75,5.45,9.75,23.4z"/>
<path d="m617,511c-15.5,8.97-38.2,17-40.9,12.4-2.69-4.66,15.6-20.3,31.2-29.2,15.5-8.97,22.4-7.92,25.1-3.26,2.69,4.66,0.155,11.2-15.4,20.1z"/>
<path d="m607,558c-15.5-8.97-33.8-24.6-31.2-29.2,2.69-4.66,25.4,3.38,40.9,12.4,15.5,8.97,18.1,15.5,15.4,20.1-2.69,4.66-9.6,5.72-25.1-3.26z"/>
<path d="m561,573c0.00001-17.9,4.37-41.6,9.75-41.6s9.75,23.7,9.75,41.6-4.37,23.4-9.75,23.4c-5.38-0.00001-9.75-5.45-9.75-23.4z"/>
<path d="m526,541c15.5-8.97,38.2-17,40.9-12.4,2.69,4.66-15.6,20.3-31.2,29.2-15.5,8.97-22.4,7.92-25.1,3.26-2.69-4.66-0.155-11.2,15.4-20.1z"/>
<path d="m535,494c15.5,8.97,33.8,24.6,31.2,29.2-2.69,4.66-25.4-3.38-40.9-12.4-15.5-8.97-18.1-15.5-15.4-20.1,2.69-4.66,9.6-5.72,25.1,3.26z"/>
</g>
</svg>
